<?xml version="1.0" encoding="utf-8"?>
<!-- Uploaded to: SVG Repo, www.svgrepo.com, Generator: SVG Repo Mixer Tools -->
<svg width="800px" height="800px" viewBox="0 0 1024 1024" class="icon"  version="1.1" xmlns="http://www.w3.org/2000/svg"><path d="M786.102723 697.713844c0-137.800464-91.866976-258.969838-224.123743-296.191802V152.055684h-166.310905v249.466358C263.411308 439.535963 171.544332 559.91338 171.544332 697.713844v3.167827h614.558391v-3.167827z" fill="#D9EFFF" /><path d="M786.102723 716.720804H171.544332c-8.711524 0-15.839134-7.12761-15.839134-15.839133v-3.167827c0-140.176334 91.866976-265.305491 224.123743-307.279196V152.055684c0-8.711524 7.12761-15.839134 15.839134-15.839133h165.518948c8.711524 0 15.839134 7.12761 15.839134 15.839133v238.378964C710.074881 433.200309 801.941857 557.53751 801.941857 697.713844v2.37587c0 8.711524-7.12761 16.63109-15.839134 16.63109z m0-19.00696zM187.383465 685.042537h582.088167C764.719892 559.91338 678.396613 451.415313 557.22724 417.361176c-7.12761-1.583913-11.87935-7.919567-11.879351-15.047178V167.894818H411.507209v234.41918c0 7.12761-4.75174 13.463264-11.879351 15.047178C279.250441 451.415313 192.927162 560.705336 187.383465 685.042537z" fill="#131313" /><path d="M559.60311 700.881671v-3.167827c0-36.430008-29.302398-65.732405-65.732406-65.732405s-65.732405 29.302398-65.732405 65.732405v3.167827H171.544332c0 169.478732 137.800464 307.279196 307.279195 307.279195s307.279196-137.800464 307.279196-307.279195H559.60311z" fill="#E3ABDE" /><path d="M478.823527 1024c-86.323279 0-167.102862-33.262181-228.083526-94.242846-61.772622-61.772622-95.034803-142.552204-95.034803-228.875483 0-3.959783 1.583913-7.919567 4.75174-11.087394 3.167827-3.167827 7.12761-4.75174 11.087394-4.75174h242.338747c6.335654-38.805878 39.597834-68.900232 79.987625-68.900232s74.443929 30.094354 79.987626 68.900232h211.452436c3.959783 0 7.919567 1.583913 11.087394 4.75174s4.75174 7.12761 4.75174 11.087394c0.791957 178.190255-144.136118 323.118329-322.326373 323.118329zM188.175422 716.720804c7.919567 153.639598 135.424594 275.600928 290.648105 275.600928s282.728538-121.96133 290.648105-275.600928H559.60311c-8.711524 0-15.839134-7.12761-15.839134-15.839133v-3.167827c0-26.926527-22.174787-49.893271-49.893272-49.893272s-49.893271 22.174787-49.893271 49.893272v3.167827c0 8.711524-7.12761 15.839134-15.839134 15.839133H188.175422z" fill="#131313" /><path d="M337.06328 845.809745c-27.718484 0-50.685228-22.966744-50.685228-50.685228s22.966744-50.685228 50.685228-50.685229 50.685228 22.966744 50.685228 50.685229-22.174787 50.685228-50.685228 50.685228z m0-70.484146c-10.295437 0-19.006961 8.711524-19.006961 19.006961 0 10.295437 8.711524 19.006961 19.006961 19.00696s19.006961-8.711524 19.00696-19.00696c0-10.295437-7.919567-19.006961-19.00696-19.006961zM604.744641 909.16628c-27.718484 0-50.685228-22.966744-50.685228-50.685228s22.966744-50.685228 50.685228-50.685228 50.685228 22.966744 50.685228 50.685228-22.966744 50.685228-50.685228 50.685228z m0-70.484145c-10.295437 0-19.006961 8.711524-19.006961 19.00696 0 10.295437 8.711524 19.006961 19.006961 19.006961s19.006961-8.711524 19.006961-19.006961c0-10.295437-8.711524-19.006961-19.006961-19.00696zM431.306126 934.508894c-14.25522 0-26.134571-11.87935-26.134571-26.134571s11.87935-26.134571 26.134571-26.13457 26.134571 11.87935 26.134571 26.13457-12.671307 26.134571-26.134571 26.134571z m0-31.678268c-3.167827 0-6.335654 2.37587-6.335654 6.335654s2.37587 6.335654 6.335654 6.335653 6.335654-2.37587 6.335653-6.335653-3.167827-6.335654-6.335653-6.335654z" fill="#131313" /><path d="M540.596149 49.101315m-26.134571 0a26.134571 26.134571 0 1 0 52.269142 0 26.134571 26.134571 0 1 0-52.269142 0Z" fill="#E3ABDE" /><path d="M540.596149 91.075019c-22.966744 0-41.973705-19.006961-41.973704-41.973704S517.629405 7.919567 540.596149 7.919567s41.973705 19.006961 41.973705 41.973704-19.006961 41.181748-41.973705 41.181748z m0-51.477185c-5.543697 0-10.295437 4.75174-10.295437 10.295437s4.75174 10.295437 10.295437 10.295437 10.295437-4.75174 10.295437-10.295437S546.139846 39.597834 540.596149 39.597834z" fill="#131313" /><path d="M798.77403 67.316319m-51.477185 0a51.477185 51.477185 0 1 0 102.95437 0 51.477185 51.477185 0 1 0-102.95437 0Z" fill="#E3ABDE" /><path d="M798.77403 134.632637c-37.221964 0-67.316319-30.094354-67.316319-67.316318S761.552066 0 798.77403 0s67.316319 30.094354 67.316319 67.316319-30.094354 67.316319-67.316319 67.316318z m0-102.954369c-19.798917 0-35.638051 15.839134-35.638051 35.638051s15.839134 35.638051 35.638051 35.638051 35.638051-15.839134 35.638051-35.638051-15.839134-35.638051-35.638051-35.638051zM668.101176 160.767208c-18.215004 0-33.262181-15.047177-33.262181-32.470224s15.047177-32.470224 33.262181-32.470225 32.470224 15.047177 32.470224 32.470225-14.25522 32.470224-32.470224 32.470224z m0-34.054138c-0.791957 0-1.583913 0.791957-1.583913 0.791957 0 1.583913 2.37587 1.583913 2.37587 0 0.791957 0 0-0.791957-0.791957-0.791957z" fill="#131313" /><path d="M249.156087 711.969064c-8.711524 0-15.839134-7.12761-15.839134-15.839134 0-138.592421 113.249807-251.842227 251.842228-251.842227 8.711524 0 15.839134 7.12761 15.839134 15.839134s-7.12761 15.839134-15.839134 15.839134c-121.169374 0-220.16396 98.994586-220.16396 220.163959 0 8.711524-7.12761 15.839134-15.839134 15.839134z" fill="#131313" /><path d="M770.263589 778.493426h-150.471771c-8.711524 0-15.839134-7.12761-15.839134-15.839134s7.12761-15.839134 15.839134-15.839133h150.471771c8.711524 0 15.839134 7.12761 15.839134 15.839133s-7.12761 15.839134-15.839134 15.839134z" fill="#131313" /><path d="M494.662661 778.493426c-8.711524 0-15.839134-7.12761-15.839134-15.839134s7.12761-15.839134 15.839134-15.839133c26.926527 0 49.893271-22.174787 49.893272-49.893272s-22.174787-49.893271-49.893272-49.893271-49.893271 22.174787-49.893271 49.893271c0 8.711524-7.12761 15.839134-15.839134 15.839134s-15.839134-7.12761-15.839134-15.839134c0-45.141531 36.430008-81.571539 81.571539-81.571539 45.141531 0 81.571539 36.430008 81.571539 81.571539s-37.221964 81.571539-81.571539 81.571539z" fill="#131313" /><path d="M405.963512 136.216551h152.055684c22.174787 0 40.389791 18.215004 40.389791 40.389791s-18.215004 40.389791-40.389791 40.389791H405.963512c-22.174787 0-40.389791-18.215004-40.389791-40.389791 0-22.966744 18.215004-40.389791 40.389791-40.389791z" fill="#D9EFFF" /><path d="M558.019196 232.04331H405.963512c-30.886311 0-56.228925-25.342614-56.228925-56.228925 0-30.886311 25.342614-56.228925 56.228925-56.228925h152.055684c30.886311 0 56.228925 25.342614 56.228925 56.228925-0.791957 31.678268-25.342614 56.228925-56.228925 56.228925zM405.963512 152.055684c-13.463264 0-24.550657 11.087394-24.550658 24.550658 0 13.463264 11.087394 24.550657 24.550658 24.550657h152.055684c13.463264 0 24.550657-11.087394 24.550658-24.550657 0-13.463264-11.087394-24.550657-24.550658-24.550658H405.963512z" fill="#131313" /></svg>